<?xml version="1.0" encoding="utf-8"?>
<!-- Generator: Adobe Illustrator 22.0.1, SVG Export Plug-In . SVG Version: 6.00 Build 0)  -->
<svg version="1.1" id="Layer_1" xmlns="http://www.w3.org/2000/svg" xmlns:xlink="http://www.w3.org/1999/xlink" x="0px" y="0px"
	 viewBox="0 0 122 20" style="enable-background:new 0 0 122 20;" xml:space="preserve">
<style type="text/css">
	.st0{fill:#342D87;fill-opacity:0;}
	.st1{fill:#FFFFFF;}
	.st2{fill:#63AFE1;}
</style>
<path class="st0" d="M119.3,20H2.7C1.2,20,0,18.7,0,17.3V2.7C0,1.3,1.2,0,2.7,0h116.5c1.5,0,2.7,1.2,2.7,2.7v14.4
	C122,18.7,120.8,20,119.3,20z"/>
<g>
	<path class="st1" d="M10.1,10.9h1.4v2.6c-0.4,0.3-0.8,0.5-1.2,0.6c-0.5,0.1-0.9,0.2-1.4,0.2c-0.7,0-1.3-0.1-1.8-0.4
		c-0.5-0.3-1-0.7-1.3-1.2c-0.3-0.5-0.5-1.1-0.5-1.7c0-0.6,0.2-1.2,0.5-1.7c0.2-0.5,0.7-0.9,1.2-1.2c0.6-0.3,1.2-0.5,1.9-0.5
		c0.6,0,1.1,0.1,1.6,0.3c0.5,0.2,0.9,0.5,1.2,0.8l-1,0.9c-0.5-0.5-1-0.7-1.7-0.7C8.4,8.9,8.1,9,7.7,9.2C7.4,9.4,7.2,9.6,7,9.9
		c-0.2,0.3-0.3,0.7-0.3,1.1c0,0.4,0.1,0.8,0.3,1.1c0.2,0.3,0.4,0.6,0.8,0.7c0.3,0.2,0.7,0.3,1.1,0.3s0.8-0.1,1.2-0.3
		C10.1,12.9,10.1,10.9,10.1,10.9z"/>
	<path class="st1" d="M17.6,13.1v1.2h-5.1V7.7h5v1.2H14v1.4h3.1v1.2H14v1.5C14,13.1,17.6,13.1,17.6,13.1z"/>
	<path class="st1" d="M19.8,9h-2.1V7.7h5.8v1.2h-2.1v5.4h-1.5V9z"/>
	<path class="st1" d="M27.6,9h-2.1V7.7h5.8v1.2h-2.1v5.4h-1.5V9L27.6,9z"/>
	<path class="st1" d="M33,14c-0.5-0.3-1-0.7-1.3-1.2c-0.3-0.5-0.5-1.1-0.5-1.7c0-0.6,0.2-1.2,0.5-1.7c0.3-0.5,0.7-0.9,1.3-1.2
		c0.5-0.3,1.2-0.4,1.8-0.4c0.7,0,1.3,0.1,1.8,0.4c0.5,0.3,1,0.7,1.3,1.2c0.3,0.5,0.5,1.1,0.5,1.7c0,0.6-0.2,1.2-0.5,1.7
		c-0.3,0.5-0.7,0.9-1.3,1.2c-0.5,0.3-1.2,0.4-1.8,0.4C34.1,14.5,33.5,14.3,33,14z M35.9,12.9c0.3-0.2,0.5-0.4,0.7-0.7
		s0.3-0.7,0.3-1.1c0-0.4-0.1-0.8-0.3-1.1c-0.2-0.3-0.4-0.6-0.7-0.7c-0.3-0.2-0.7-0.3-1-0.3c-0.4,0-0.7,0.1-1,0.3
		c-0.3,0.2-0.5,0.4-0.7,0.7c-0.2,0.3-0.3,0.7-0.3,1.1c0,0.4,0.1,0.8,0.3,1.1c0.2,0.3,0.4,0.6,0.7,0.7c0.3,0.2,0.7,0.3,1,0.3
		C35.2,13.2,35.5,13.1,35.9,12.9z"/>
	<path class="st1" d="M44,11.8L43,12.7v1.6h-1.5V7.7H43v3.1l3-3.1h1.7l-2.7,3l3,3.7h-1.8L44,11.8z"/>
	<path class="st1" d="M54.2,7.7v6.6h-1.3l-3.3-4.1v4.1h-1.5V7.7h1.2l3.3,4.1V7.7C52.6,7.7,54.2,7.7,54.2,7.7z"/>
	<path class="st1" d="M56.8,14c-0.5-0.3-1-0.7-1.3-1.2c-0.3-0.5-0.5-1.1-0.5-1.7c0-0.6,0.2-1.2,0.5-1.7c0.3-0.5,0.7-0.9,1.3-1.2
		c0.5-0.3,1.2-0.4,1.8-0.4c0.7,0,1.3,0.1,1.8,0.4c0.5,0.3,1,0.7,1.3,1.2c0.3,0.5,0.5,1.1,0.5,1.7c0,0.6-0.2,1.2-0.5,1.7
		c-0.3,0.5-0.7,0.9-1.3,1.2c-0.5,0.3-1.2,0.4-1.8,0.4C57.9,14.5,57.3,14.3,56.8,14z M59.6,12.9c0.3-0.2,0.5-0.4,0.7-0.7
		c0.2-0.3,0.3-0.7,0.3-1.1c0-0.4-0.1-0.8-0.3-1.1c-0.2-0.3-0.4-0.6-0.7-0.7c-0.3-0.2-0.7-0.3-1-0.3c-0.4,0-0.7,0.1-1,0.3
		s-0.5,0.4-0.7,0.7c-0.2,0.3-0.3,0.7-0.3,1.1c0,0.4,0.1,0.8,0.3,1.1s0.4,0.6,0.7,0.7c0.3,0.2,0.7,0.3,1,0.3
		C59,13.2,59.3,13.1,59.6,12.9z"/>
	<path class="st1" d="M72.8,7.7l-2.1,6.6H69l-1.4-4.5L66,14.3h-1.6l-2.1-6.6h1.6l1.5,4.7L67,7.7h1.4l1.5,4.7l1.5-4.7
		C71.3,7.7,72.8,7.7,72.8,7.7z"/>
	<path class="st1" d="M79.9,14.4l-1.6-2.3l-1.5,2.3H75l2.4-3.4l-2.3-3.3h1.7l1.5,2.1l1.5-2.1h1.6l-2.3,3.2l2.4,3.5H79.9z"/>
	<path class="st1" d="M81.9,7.7h1.5v6.6h-1.5V7.7L81.9,7.7z"/>
	<path class="st1" d="M84.6,7.7h1.5v6.6h-1.5V7.7z"/>
	<path class="st1" d="M87.3,7.7h3.1c0.7,0,1.3,0.1,1.9,0.4c0.5,0.3,1,0.6,1.3,1.1c0.3,0.5,0.4,1.1,0.4,1.7s-0.1,1.2-0.4,1.7
		c-0.3,0.5-0.7,0.9-1.3,1.1c-0.6,0.2-1.2,0.4-1.9,0.4h-3.1V7.7L87.3,7.7z M90.3,13.1c0.6,0,1.2-0.2,1.6-0.5c0.4-0.3,0.6-0.9,0.6-1.5
		s-0.2-1.1-0.6-1.5S91,9,90.3,9h-1.4v4.1H90.3z"/>
	<path class="st1" d="M99,14.4l-1.3-1.9h-0.1h-1.3v1.8h-1.5V7.7h2.8c0.6,0,1.1,0.1,1.5,0.3c0.4,0.2,0.8,0.5,1,0.8
		c0.2,0.4,0.3,0.8,0.3,1.3c0,0.5-0.1,0.9-0.3,1.3c-0.2,0.3-0.6,0.6-1,0.8l1.5,2.1H99z M98.6,9.3C98.4,9.1,98,9,97.6,9h-1.2v2.3h1.2
		c0.4,0,0.8-0.1,1-0.3c0.2-0.2,0.4-0.5,0.4-0.8C99,9.9,98.8,9.5,98.6,9.3z"/>
	<path class="st1" d="M105.7,13h-3.1l-0.6,1.4h-1.5l3-6.6h1.5l3,6.6h-1.6L105.7,13z M105.2,11.8l-1-2.5l-1,2.5H105.2z"/>
</g>
<circle class="st2" cx="82.5" cy="6" r="1.2"/>
<circle class="st2" cx="85.5" cy="6" r="1.2"/>
</svg>
