<?xml version="1.0" encoding="utf-8"?>
<!-- Generator: Adobe Illustrator 22.0.1, SVG Export Plug-In . SVG Version: 6.00 Build 0)  -->
<svg version="1.1" id="Layer_1" xmlns="http://www.w3.org/2000/svg" xmlns:xlink="http://www.w3.org/1999/xlink" x="0px" y="0px"
	 viewBox="0 0 283.5 83.7" style="enable-background:new 0 0 283.5 83.7;" xml:space="preserve">
<style type="text/css">
	.st0{fill:#1D78BE;}
</style>
<g>
	<path class="st0" d="M113.5,3.4h15.6v29.6h0.3c4-6.4,10.8-9.5,16.6-9.5c16.6,0,20.8,9.3,20.8,23.4v35h-15.6V49.8
		c0-9.3-2.7-14-10-14c-8.5,0-12.1,4.7-12.1,16.3v29.8h-15.6V3.4z"/>
	<path class="st0" d="M187.2,16.2h-15.6V3.4h15.6V16.2z M171.6,25h15.6v56.8h-15.6V25z"/>
	<path class="st0" d="M192,25h14.8v10.6h0.2c2.9-7.1,10.6-12.1,18.1-12.1c1.1,0,2.4,0.2,3.4,0.5v14.5c-1.4-0.3-3.7-0.6-5.6-0.6
		c-11.4,0-15.4,8.2-15.4,18.2v25.6H192V25z"/>
	<path class="st0" d="M242.4,57.2c0.4,9.9,5.3,14.4,14,14.4c6.3,0,11.3-3.8,12.3-7.4h13.7c-4.4,13.4-13.7,19.1-26.6,19.1
		c-17.9,0-29-12.3-29-29.9c0-17,11.8-30,29-30c19.3,0,28.7,16.3,27.6,33.7H242.4z M267.8,47.3c-1.4-7.9-4.8-12.1-12.4-12.1
		c-9.9,0-12.7,7.7-13,12.1H267.8z"/>
	<g>
		<g>
			<path class="st0" d="M109.5,3.2c-3.1-3.8-11.9-4.4-24.7-1c-2.6-0.4-6.4-0.7-9-0.7c-12.2,0-25,5.7-28.5,17.4c-1.5,1-3,1.9-4.5,3
				C0.7,50.8-2.9,69.5,1.4,75.8c5,7.3,21.5,7.1,40.9-0.3L42,75.1c-15.2,4.8-27.9,4.2-31.7-1.4c-3.6-5.3-1.9-23.5,34.7-48.7
				C57.9,16.2,72.3,9.3,84.2,5.9c-11.5,4.5-25.2,12.6-37.3,22.7c-0.1,0.1-0.2,0.1-0.2,0.2c1.8,11.9,12.5,15.9,23.2,18.7
				c11.5,3.1,23.3,4.5,23.3,13c0,8-9.2,9.8-15.3,9.8c-9.2,0-17.4-4.1-17.4-14.5H43.7c-0.2,19.3,16,27.9,33.4,27.9
				c21.3,0,32.6-10.8,32.6-25.2c0-17.8-17.6-21.4-23.3-22.9c-19.7-5.1-23.4-5.8-23.4-11.9c0-6.6,6.4-8.9,11.9-8.9
				c8.2,0,15,2.4,15.5,11.9h16.7c0-11.9-6.5-19-15.5-22.6c9.2-2,14.5-1.1,17,2.5c1.3,1.9,1.4,4,0.2,6.7l0.3,0.3
				C111.2,10.1,112,6.3,109.5,3.2z"/>
		</g>
	</g>
</g>
</svg>
