<svg xmlns="http://www.w3.org/2000/svg" viewBox="0 0 512 318.58"><defs><style>.a{fill:#fff;}</style></defs><title>Asset 1</title><path class="a" d="M462.37,45.08H334.08V13.22h128.3V45.08ZM248.68,175.75Q261.1,195,261.09,222.42c0,18.9-4.66,35.86-14.15,50.83a88,88,0,0,1-22.53,25q-15.22,11.7-36,16a222.21,222.21,0,0,1-45,4.31H0V0H153.85c38.78.63,66.28,11.87,82.51,33.93,9.75,13.54,14.57,29.77,14.57,48.65,0,19.48-4.88,35.06-14.72,46.9q-8.21,10-24.26,18.13C228.16,153.54,240.46,162.89,248.68,175.75ZM73.47,125.6h67.41c13.86,0,25.06-2.63,33.68-7.9s12.92-14.6,12.92-28c0-14.82-5.69-24.65-17.11-29.39-9.81-3.29-22.37-5-37.6-5H73.47ZM194,217.87c0-16.55-6.76-28-20.26-34.13-7.55-3.49-18.2-5.27-31.86-5.4H73.47v84.9h67.32c13.83,0,24.54-1.81,32.26-5.59C187,250.71,194,237.49,194,217.87ZM510,166c1.55,10.42,2.25,25.55,2,45.31H345.79q1.38,34.41,23.85,48.15c9.05,5.76,20,8.57,32.89,8.57,13.55,0,24.6-3.43,33.11-10.47,4.63-3.74,8.72-9,12.25-15.66h60.9c-1.59,13.55-8.92,27.28-22.1,41.24q-30.63,33.29-85.82,33.32-45.57,0-80.39-28.08T285.69,197q0-59.37,31.39-91c21-21.13,48.18-31.64,81.64-31.64q29.76,0,53.66,10.67t39.39,33.79C501.14,132.43,507.16,148.14,510,166ZM450,172q-1.68-23.79-15.95-36.07t-35.36-12.35c-15.34,0-27.18,4.41-35.6,13.09s-13.74,20.43-15.9,35.33Z"/></svg>