<svg xmlns="http://www.w3.org/2000/svg" viewBox="0 0 512 489.25"><defs><style>.a{fill:#fcf9f9;}</style></defs><title>Asset 1</title><path class="a" d="M512,300V489.25H402.26V312.63c0-44.36-15.87-74.64-55.59-74.64-30.32,0-48.37,20.4-56.31,40.14-2.89,7.06-3.64,16.88-3.64,26.76V489.25H177s1.48-299.13,0-330.12H286.71v46.79c-.22.35-.51.73-.72,1.07h.72v-1.07c14.58-22.46,40.63-54.54,98.92-54.54C457.86,151.38,512,198.56,512,300ZM62.12,0C24.56,0,0,24.63,0,57c0,31.69,23.85,57.07,60.66,57.07h.73c38.28,0,62.09-25.37,62.09-57.07C122.76,24.63,99.67,0,62.12,0ZM6.52,489.25H116.25V159.13H6.52Z"/></svg>