<svg xmlns="http://www.w3.org/2000/svg" viewBox="0 0 202.31 201.98"><defs><style>.a,.c{fill:#fff;}.a,.b{opacity:0.2;}</style></defs><title>Asset 2</title><path class="a" d="M101.16,0,0,49.78l50.64,93.28L202.31,49.78ZM48.64,112.78l-29-57,29-14Zm15-78,37.52-19,73.48,36-111,66Z"/><g class="b"><path class="c" d="M3.86,166.34H3v-2.28q1.08.18,2,.27t1.77.15l1.83.12q.93.06,2.07.06h.9q1.26,0,2.31-.06t2.07-.18h.24a.53.53,0,0,0,.24-.06l2.64-.15q1.38-.09,3.06-.09,9.48.18,14.16,5.55a19.42,19.42,0,0,1,4.74,13.05,19.87,19.87,0,0,1-4.65,13.5q-4.77,5.7-14.43,5.58a19,19,0,0,1-3.12-.24l-2.82-.48-.27,0a1.07,1.07,0,0,1-.27-.09q-1.14-.18-2.34-.33t-2.52-.21H9.32q-.78,0-1.5,0l-1.44.09-1.62.15-1.86.21v-2.34H5.84a2.62,2.62,0,0,0,1.2-.15,3.44,3.44,0,0,0,1-.63,2,2,0,0,0,.69-1.2,11.2,11.2,0,0,0,.09-1.5V174.29a10,10,0,0,0-.06-1.11,35,35,0,0,0-.3-3.72,4.21,4.21,0,0,0-.78-2.28,2.52,2.52,0,0,0-1.08-.69,4.48,4.48,0,0,0-1.2-.15H4.64a1.23,1.23,0,0,1-.39.06H3.86Zm9.54,26.1a7.37,7.37,0,0,0,1.8,5.16q1.8,2,6.18,2H22q7.5-.24,10.56-5a21.07,21.07,0,0,0,3.24-10.92v-.42a17,17,0,0,0-4.56-11.76,15.45,15.45,0,0,0-11.88-5.1h-.6a1.05,1.05,0,0,1-.33.06h-.33l-4.68.24Z"/><path class="c" d="M64.34,184.28v.3q-.06.78-.12,1.5t-.12,1.38q-.18,2.4-.33,4.44t-.15,3.42a6.37,6.37,0,0,0,.21,1.89q.21.63.69.45a1.49,1.49,0,0,1,.45-.15l.45-.09a1.63,1.63,0,0,0,.45-.06l.45-.12,1.14-.48.78,1.5a.92.92,0,0,1-.36.15,2.19,2.19,0,0,1-.36,0l-1,.24-1,.24-1.08.36-1.2.42-.81.36a5.52,5.52,0,0,0-.75.42l-1.11.57a4.41,4.41,0,0,1-1,.39.22.22,0,0,1-.27-.06.73.73,0,0,1-.09-.42,10.79,10.79,0,0,1,.18-1.56q.18-1.08.42-2.7.12-.66.21-1.41t.15-1.59q.06-.9.09-1.68t0-1.5a3.71,3.71,0,0,0,0-.81q0-.39,0-.87V187.1l-5.1,8.34a16,16,0,0,1-2.67,3.3,9.24,9.24,0,0,1-3.21,2,5.7,5.7,0,0,1-1.08.36,5,5,0,0,1-1.08.12h-.36a3,3,0,0,1-2.67-1.89,9.39,9.39,0,0,1-.75-3.81v-.78a19.53,19.53,0,0,1,.27-2.34q.21-1.2.51-2.4a32.35,32.35,0,0,1,3.45-7.86,35.15,35.15,0,0,1,4.89-6.48,19.38,19.38,0,0,1,3.51-3,6.31,6.31,0,0,1,3-1.17,5.78,5.78,0,0,1,.63,0l.57.09.51.12a6.48,6.48,0,0,1,.63.18l4.2-.48q-.06.48-.12.87t-.12.75q-.42,3.36-.66,6.42t-.36,4.86ZM59.66,173.9h-.12l-.27,0a1.69,1.69,0,0,0-.33,0,3.65,3.65,0,0,0-2.25.87A15.57,15.57,0,0,0,54,177.26a29,29,0,0,0-3.72,5.61,26,26,0,0,0-2.46,6.87q-.12.66-.21,1.29t-.15,1.29v1.14a5,5,0,0,0,.54,2.31,2,2,0,0,0,2,1l.27,0,.27,0q2.1-.42,4.11-3.33a42.48,42.48,0,0,0,3.57-6.27q.66-1.56,1.23-3.06t1-2.76q.06-.18.12-.42l.12-.48q.12-.6.24-1.29t.18-1.47v-.3a6,6,0,0,0-.33-2A2.31,2.31,0,0,0,59.66,174Z"/><path class="c" d="M76.46,198.32l5.58-1v2.52a7.67,7.67,0,0,1-1.2.12q-1,.06-2.22.18l-.84.12-.84.12a7.12,7.12,0,0,0-.78.18l-.9.24a1.79,1.79,0,0,0-.57.09l-.57.21q-1,.3-1.68.57l-.84.33q.06-1.26.12-2.31t.12-2.07v-.12q.06-1,.12-2t.12-2.31q.24-3.36.3-5.76t.12-4.5v-.72a4.37,4.37,0,0,1,.06-.72q0-1.86.09-3.78T73,173.3q.42-4.38.84-7.92t1-6.9q.48-3.18,1.17-6.42t1.59-7.14l6.48-.06v1.8a.17.17,0,0,1-.06.12q-.36.24-1.59,1.32t-2.67,6.36q-.06.36-.15.72t-.21.72a66.85,66.85,0,0,0-1.2,8.49q-.54,5.73-.9,12-.06,1-.09,1.92t-.09,1.92q-.36,7.08-.51,12.54t-.15,5.58Z"/><path class="c" d="M91.94,198.32l5.58-1v2.52a7.67,7.67,0,0,1-1.2.12q-1,.06-2.22.18l-.84.12-.84.12a7.12,7.12,0,0,0-.78.18l-.9.24a1.79,1.79,0,0,0-.57.09l-.57.21q-1,.3-1.68.57l-.84.33q.06-1.26.12-2.31t.12-2.07v-.12q.06-1,.12-2t.12-2.31q.24-3.36.3-5.76t.12-4.5v-.72a4.37,4.37,0,0,1,.06-.72q0-1.86.09-3.78t.33-4.38q.42-4.38.84-7.92t1-6.9q.48-3.18,1.17-6.42t1.59-7.14l6.48-.06v1.8a.17.17,0,0,1-.06.12q-.36.24-1.59,1.32t-2.67,6.36q-.06.36-.15.72t-.21.72a66.85,66.85,0,0,0-1.2,8.49q-.54,5.73-.9,12-.06,1-.09,1.92t-.09,1.92q-.36,7.08-.51,12.54t-.15,5.58Z"/><path class="c" d="M117.8,190.46h.12l1.86.24v.12a14.36,14.36,0,0,1-.27,2,10.88,10.88,0,0,1-1.17,3.18,10.58,10.58,0,0,1-3.15,3.66,9.45,9.45,0,0,1-5.85,1.62,7.26,7.26,0,0,1-6.54-3.21,14,14,0,0,1-2.1-7.83v-.84q.06-.84.12-1.71l.12-1.71a28.66,28.66,0,0,1,2.88-9.84,8.14,8.14,0,0,1,7.5-4.68h.3q3.72-.06,5.13,2.31a10.3,10.3,0,0,1,1.41,5.37v.63a3.21,3.21,0,0,1-.06.63,14.79,14.79,0,0,1-.24,1.89q-.18.93-.42,1.83l-1.65.54q-.75.24-1.47.42t-1.2.33q-.6.15-1.26.27l-.45.09-.45.09q-.84.18-1.53.3l-1.35.24q-.72.12-1.47.21l-1.65.21a1.32,1.32,0,0,0-.09.54q0,.48,0,1.32t.09,1.8a16.28,16.28,0,0,0,.33,2.1,10.22,10.22,0,0,0,1.8,3.87,5.15,5.15,0,0,0,4,1.95h.3a5.71,5.71,0,0,0,4.59-2.22,7.63,7.63,0,0,0,1.83-5v-.72Zm-12.6-5.58v.06l5.34-.9a3.93,3.93,0,0,0,3-1.92,6.67,6.67,0,0,0,1-3.6v-.45a1.86,1.86,0,0,0-.06-.45,1.69,1.69,0,0,0,0-.33,1.39,1.39,0,0,1,0-.27.66.66,0,0,0,0-.21.66.66,0,0,1,0-.21,7.88,7.88,0,0,0-.6-2.43,2.09,2.09,0,0,0-2.16-1.11h-.3a4.08,4.08,0,0,0-3.18,1.95,15.81,15.81,0,0,0-2,4,21.31,21.31,0,0,0-.78,3.21,16.22,16.22,0,0,0-.24,2.25v.36q0,.12.06.12Z"/><path class="c" d="M145.22,199.88l-.06.06a.52.52,0,0,1-.27.15,1.07,1.07,0,0,0-.27.09,5.94,5.94,0,0,0-.9.3,7,7,0,0,1-.84.3l-.81.45q-.39.21-.87.51l-.9-.78q.18-.66.3-1.2l.24-1.08a6.61,6.61,0,0,0,.18-.81q.06-.39.18-.87t.12-.75q.06-.39.12-.87.24-1.5.39-3.18t.27-3.36q.36-4.56.45-8.37t.09-3.87-1.68,2q-1.56,1.83-3.42,4.23a3.8,3.8,0,0,1-.42.57l-.48.57-1.32,1.8q-.66.9-1.2,1.74a24.68,24.68,0,0,0-4,9.06q-.72,4.08-.78,4.32h-3.66L127,175.52l-4.68,1v-2.28a1.13,1.13,0,0,0,.36.06h.36q.42,0,.81,0l.75,0,1-.15a9.3,9.3,0,0,0,1.14-.27q1-.24,1.77-.51a8.13,8.13,0,0,0,1.53-.69q.48-.24,1-.54t1-.66l-2,19q.12-.18,1.23-2.1t2.61-4.2q.36-.6.78-1.17t.78-1.11q.3-.42.6-.81l.6-.75q.72-.84,1.35-1.65t1.23-1.53l.54-.66.54-.66q.78-.84,1.59-1.77t1.83-1.89l3.3-.06-1.38,25.44,4.32-.66V199l-1.32.12q-.6.06-1.2.18t-1.08.27l-1.2.33Z"/><path class="c" d="M173.24,184.28v.3q-.06.78-.12,1.5t-.12,1.38q-.18,2.4-.33,4.44t-.15,3.42a6.37,6.37,0,0,0,.21,1.89q.21.63.69.45a1.49,1.49,0,0,1,.45-.15l.45-.09a1.63,1.63,0,0,0,.45-.06l.45-.12,1.14-.48.78,1.5a.92.92,0,0,1-.36.15,2.19,2.19,0,0,1-.36,0l-1,.24-1,.24-1.08.36-1.2.42-.81.36a5.52,5.52,0,0,0-.75.42l-1.11.57a4.41,4.41,0,0,1-1,.39.22.22,0,0,1-.27-.06.73.73,0,0,1-.09-.42,10.79,10.79,0,0,1,.18-1.56q.18-1.08.42-2.7.12-.66.21-1.41t.15-1.59q.06-.9.09-1.68t0-1.5a3.71,3.71,0,0,0,0-.81q0-.39,0-.87V187.1l-5.1,8.34a16,16,0,0,1-2.67,3.3,9.24,9.24,0,0,1-3.21,2,5.7,5.7,0,0,1-1.08.36,5,5,0,0,1-1.08.12h-.36a3,3,0,0,1-2.67-1.89,9.39,9.39,0,0,1-.75-3.81v-.78a19.53,19.53,0,0,1,.27-2.34q.21-1.2.51-2.4a32.35,32.35,0,0,1,3.45-7.86,35.15,35.15,0,0,1,4.89-6.48,19.38,19.38,0,0,1,3.51-3,6.31,6.31,0,0,1,3-1.17,5.78,5.78,0,0,1,.63,0l.57.09.51.12a6.48,6.48,0,0,1,.63.18l4.2-.48q-.06.48-.12.87t-.12.75q-.42,3.36-.66,6.42t-.36,4.86Zm-4.68-10.38h-.12l-.27,0a1.69,1.69,0,0,0-.33,0,3.65,3.65,0,0,0-2.25.87,15.57,15.57,0,0,0-2.67,2.55,29,29,0,0,0-3.72,5.61,26,26,0,0,0-2.46,6.87q-.12.66-.21,1.29t-.15,1.29v1.14a5,5,0,0,0,.54,2.31,2,2,0,0,0,2,1l.27,0,.27,0q2.1-.42,4.11-3.33a42.48,42.48,0,0,0,3.57-6.27q.66-1.56,1.23-3.06t1-2.76q.06-.18.12-.42l.12-.48q.12-.6.24-1.29t.18-1.47v-.3a6,6,0,0,0-.33-2,2.31,2.31,0,0,0-1.17-1.35Z"/><path class="c" d="M181.46,161.06l-1.08.18-.78-1.5,5.58-2.82,2.16,2q1,1,1.95,1.92t1.71,1.8a30.14,30.14,0,0,1,2.67,3.45,36.33,36.33,0,0,1,2.31,4.11q.18.42.39.84t.39.84a1.66,1.66,0,0,0,.15.33,1.66,1.66,0,0,1,.15.33,27.61,27.61,0,0,1,1.29,4.14,21.48,21.48,0,0,1,.57,5V186a15.38,15.38,0,0,1-.18,2.4q-.18,1.14-.36,2.1-.12.48-.21.87t-.15.75a4.41,4.41,0,0,1-.39,1q-.33.69-.75,1.41a10.74,10.74,0,0,1-.78,1.23,6.17,6.17,0,0,1-.9,1,2.25,2.25,0,0,1-.24.21,1.58,1.58,0,0,1-.24.15l-6.12,3.36a5.2,5.2,0,0,1-1.38.54,9.4,9.4,0,0,1-1.8.3h-1a.48.48,0,0,0-.21-.06H184a4.78,4.78,0,0,1-3.9-3.12A18.56,18.56,0,0,1,178.7,192a10.33,10.33,0,0,1-.06-1.14v-1.14q0-.66.06-1.32l.12-1.32a26.81,26.81,0,0,1,2.91-9.42q2.31-4.38,5.31-5.46l1.8-.66.3,0a2.19,2.19,0,0,1,.36,0,1.63,1.63,0,0,1,.45.06.38.38,0,0,1,.27.3.17.17,0,0,0,.06.12v.42a1.51,1.51,0,0,1-.21.39,1,1,0,0,1-.39.33l-2,.84q-1.44.72-2.64,3.93a31.09,31.09,0,0,0-1.68,7q-.12,1-.21,1.92t-.09,1.86q0,.6,0,1.2t0,1.2a16.42,16.42,0,0,0,1.14,5.13,3.76,3.76,0,0,0,3.6,2.49h.36q3.66.06,5-3.87a30.61,30.61,0,0,0,1.62-8.61v-1.5a28.2,28.2,0,0,0-2.34-11.61,30.71,30.71,0,0,0-5.22-8.37,14.86,14.86,0,0,0-3-2.67,5,5,0,0,0-2.55-.93h-.24Z"/></g></svg>