<svg xmlns="http://www.w3.org/2000/svg" viewBox="0 0 556 143.06"><defs><style>.a{fill:#fff;}</style></defs><title>Asset 4</title><path class="a" d="M101.16,0,0,49.78l50.64,93.28L202.31,49.78ZM48.64,112.78l-29-57,29-14Zm15-78,37.52-19,73.48,36-111,66Z"/><path class="a" d="M205.42,56.11h-.9V53.83q1.08.18,1.95.27t1.77.15l1.83.12q.93.06,2.07.06h.9q1.26,0,2.31-.06t2.07-.18h.24a.53.53,0,0,0,.24-.06l2.64-.15q1.38-.09,3.06-.09,9.48.18,14.16,5.55a19.42,19.42,0,0,1,4.74,13A19.87,19.87,0,0,1,237.85,86q-4.77,5.7-14.43,5.58a19,19,0,0,1-3.12-.24l-2.82-.48-.27,0a1.07,1.07,0,0,1-.27-.09q-1.14-.18-2.34-.33t-2.52-.21h-1.2q-.78,0-1.5,0t-1.44.09l-1.62.15-1.86.21V88.33h2.94a2.62,2.62,0,0,0,1.2-.15,3.44,3.44,0,0,0,1-.63,2,2,0,0,0,.69-1.2,11.2,11.2,0,0,0,.09-1.5V64.06a10,10,0,0,0-.06-1.11,35,35,0,0,0-.3-3.72,4.21,4.21,0,0,0-.78-2.28,2.52,2.52,0,0,0-1.08-.69,4.48,4.48,0,0,0-1.2-.15h-.78a1.23,1.23,0,0,1-.39.06h-.39ZM215,82.21a7.37,7.37,0,0,0,1.8,5.16q1.8,2,6.18,2h.6q7.5-.24,10.56-5a21.07,21.07,0,0,0,3.24-10.92V73a17,17,0,0,0-4.56-11.76,15.45,15.45,0,0,0-11.88-5.1h-.6a1.05,1.05,0,0,1-.33.06h-.33l-4.68.24Z"/><path class="a" d="M265.9,74.05v.3q-.06.78-.12,1.5t-.12,1.38q-.18,2.4-.33,4.44t-.15,3.42a6.37,6.37,0,0,0,.21,1.89q.21.63.69.45a1.49,1.49,0,0,1,.45-.15l.45-.09a1.63,1.63,0,0,0,.45-.06l.45-.12,1.14-.48.78,1.5a.92.92,0,0,1-.36.15,2.19,2.19,0,0,1-.36,0l-1,.24-1,.24-1.08.36-1.2.42-.81.36a5.52,5.52,0,0,0-.75.42l-1.11.57a4.41,4.41,0,0,1-1,.39.22.22,0,0,1-.27-.06.73.73,0,0,1-.09-.42,10.79,10.79,0,0,1,.18-1.56q.18-1.08.42-2.7.12-.66.21-1.41t.15-1.59q.06-.9.09-1.68t0-1.5a3.71,3.71,0,0,0,0-.81q0-.39,0-.87V76.87l-5.1,8.34a16,16,0,0,1-2.67,3.3,9.24,9.24,0,0,1-3.21,2,5.7,5.7,0,0,1-1.08.36,5,5,0,0,1-1.08.12h-.36a3,3,0,0,1-2.67-1.89,9.39,9.39,0,0,1-.75-3.81v-.78a19.53,19.53,0,0,1,.27-2.34q.21-1.2.51-2.4A32.35,32.35,0,0,1,249.19,72a35.15,35.15,0,0,1,4.89-6.48,19.38,19.38,0,0,1,3.51-3,6.31,6.31,0,0,1,3-1.17,5.78,5.78,0,0,1,.63,0l.57.09.51.12a6.48,6.48,0,0,1,.63.18l4.2-.48q-.06.48-.12.87l-.12.75q-.42,3.36-.66,6.42t-.36,4.86Zm-4.68-10.38h-.12l-.27,0a1.69,1.69,0,0,0-.33,0,3.65,3.65,0,0,0-2.25.87A15.57,15.57,0,0,0,255.58,67a29,29,0,0,0-3.72,5.61,26,26,0,0,0-2.46,6.87q-.12.66-.21,1.29T249,82.09v1.14a5,5,0,0,0,.54,2.31,2,2,0,0,0,2,1l.27,0,.27,0q2.1-.42,4.11-3.33a42.48,42.48,0,0,0,3.57-6.27q.66-1.56,1.23-3.06t1-2.76q.06-.18.12-.42l.12-.48q.12-.6.24-1.29t.18-1.47v-.3a6,6,0,0,0-.33-2,2.31,2.31,0,0,0-1.17-1.35Z"/><path class="a" d="M294,89.65l-.06.06a.52.52,0,0,1-.27.15,1.07,1.07,0,0,0-.27.09,5.94,5.94,0,0,0-.9.3,7,7,0,0,1-.84.3l-.81.45q-.39.21-.87.51l-.9-.78q.18-.66.3-1.2l.24-1.08a6.61,6.61,0,0,0,.18-.81q.06-.39.18-.87t.12-.75q.06-.39.12-.87.24-1.5.39-3.18t.27-3.36q.36-4.56.45-8.37t.09-3.87-1.68,1.95q-1.56,1.83-3.42,4.23a3.8,3.8,0,0,1-.42.57l-.48.57-1.32,1.8q-.66.9-1.2,1.74a24.68,24.68,0,0,0-4,9.06q-.72,4.08-.78,4.32h-3.66l1.38-25.32-4.68,1V64a1.13,1.13,0,0,0,.36.06h.36q.42,0,.81,0l.75,0,1-.15a9.3,9.3,0,0,0,1.14-.27q1-.24,1.77-.51a8.13,8.13,0,0,0,1.53-.69q.48-.24,1-.54t1-.66l-2,19q.12-.18,1.23-2.1t2.61-4.2q.36-.6.78-1.17t.78-1.11q.3-.42.6-.81t.6-.75q.72-.84,1.35-1.65T288,66.91l.54-.66.54-.66q.78-.84,1.59-1.77t1.83-1.89l3.3-.06-1.38,25.44,4.32-.66v2.16l-1.32.12q-.6.06-1.2.18t-1.08.27l-1.2.33Z"/><path class="a" d="M306,65.53v.06l-5.22.9V64.33a.64.64,0,0,0,.33,0,1.69,1.69,0,0,1,.33,0l1-.12,1-.12,1.17-.24a11.87,11.87,0,0,0,1.29-.36l.87-.27.93-.33a.42.42,0,0,0,.18,0l.18-.09,2-.69q.93-.33,1.05-.39L309,90.61l-4.56,1q.6-3.84.93-7.29t.45-6.15q.18-2.7.24-4.41t.06-3.21V67.84q0-1-.06-2.25Zm-.9-14.76v-.48a4,4,0,0,1,1-2.43,2.84,2.84,0,0,1,2.25-1.11h.12a3,3,0,0,1,2.34,1.17,4.15,4.15,0,0,1,1,2.49v.12a3.72,3.72,0,0,1-1.08,2.64,3.31,3.31,0,0,1-2.46,1.14h-.12a2.76,2.76,0,0,1-2-1.11,4.24,4.24,0,0,1-1-2.37Z"/><path class="a" d="M331.72,80.23h.12l1.86.24v.12a14.36,14.36,0,0,1-.27,2,10.88,10.88,0,0,1-1.17,3.18,10.58,10.58,0,0,1-3.15,3.66A9.45,9.45,0,0,1,323.26,91a7.26,7.26,0,0,1-6.54-3.21,14,14,0,0,1-2.1-7.83v-.84q.06-.84.12-1.71t.12-1.71a28.66,28.66,0,0,1,2.88-9.84,8.14,8.14,0,0,1,7.5-4.68h.3q3.72-.06,5.13,2.31a10.3,10.3,0,0,1,1.41,5.37v.63a3.21,3.21,0,0,1-.06.63,14.79,14.79,0,0,1-.24,1.89q-.18.93-.42,1.83l-1.65.54q-.75.24-1.47.42t-1.2.33q-.6.15-1.26.27l-.45.09-.45.09q-.84.18-1.53.3l-1.35.24q-.72.12-1.47.21l-1.65.21a1.32,1.32,0,0,0-.09.54q0,.48,0,1.32t.09,1.8a16.28,16.28,0,0,0,.33,2.1A10.22,10.22,0,0,0,321,86.2a5.15,5.15,0,0,0,4,2h.3a5.71,5.71,0,0,0,4.59-2.22,7.63,7.63,0,0,0,1.83-5v-.72Zm-12.6-5.58v.06l5.34-.9a3.93,3.93,0,0,0,3-1.92,6.67,6.67,0,0,0,1.05-3.6v-.45a1.86,1.86,0,0,0-.06-.45,1.69,1.69,0,0,0,0-.33,1.39,1.39,0,0,1,0-.27.66.66,0,0,0,0-.21.66.66,0,0,1,0-.21,7.88,7.88,0,0,0-.6-2.43,2.09,2.09,0,0,0-2.16-1.11h-.3a4.08,4.08,0,0,0-3.18,2,15.81,15.81,0,0,0-2,4A21.31,21.31,0,0,0,319.3,72a16.22,16.22,0,0,0-.24,2.25v.36q0,.12.06.12Z"/><path class="a" d="M343.18,88.09l5.58-1v2.52a7.67,7.67,0,0,1-1.2.12q-1,.06-2.22.18l-.84.12-.84.12a7.12,7.12,0,0,0-.78.18l-.9.24a1.75,1.75,0,0,0-.57.09l-.57.21q-1,.3-1.68.57l-.84.33c0-.84.08-1.61.12-2.31s.08-1.39.12-2.07v-.12q.06-1,.12-2t.12-2.31q.24-3.36.3-5.76t.12-4.5V72a4.37,4.37,0,0,1,.06-.72q0-1.86.09-3.78t.33-4.38q.42-4.38.84-7.92c.27-2.36.62-4.66,1-6.9s.71-4.26,1.17-6.42,1-4.54,1.59-7.14l6.48-.06v1.8a.23.23,0,0,1-.06.12q-.36.24-1.59,1.32t-2.67,6.36q-.06.36-.15.72t-.21.72a66.85,66.85,0,0,0-1.2,8.49q-.54,5.73-.9,12-.06,1-.09,1.92T343.84,70q-.36,7.08-.51,12.54t-.15,5.58Z"/><path class="a" d="M380.56,73l-.18-.12h-4.44v10a14.66,14.66,0,0,0,.18,2.4,3.39,3.39,0,0,0,1.2,2,3.22,3.22,0,0,0,1.38.78,6.69,6.69,0,0,0,1.62.18l2.1-.06v2.28q-1.2-.06-2.19-.15l-1.89-.15q-.66-.06-1.29-.06h-3l-1.35,0-1.41.09q-.6,0-1.26.06t-1.26.06q-1.2.12-2.1.18l-1.08.06V88.39h3.06a2.2,2.2,0,0,0,1.17-.21,4.39,4.39,0,0,0,.93-.57l.12-.12.12-.12a2.76,2.76,0,0,0,.75-1.8q.09-1.14.09-2.4V63.07a33.22,33.22,0,0,0-.33-3.87,4,4,0,0,0-1-2.49,1.45,1.45,0,0,0-.78-.39,5.53,5.53,0,0,0-1-.09l-2.52-.06V54q1.74.24,3.24.33t2.82.09h3.24l2.25-.12q1.17-.06,2.49-.24L381,54q.39,0,.81,0a9.69,9.69,0,0,1,6.63,2.46,8.2,8.2,0,0,1,2.85,6.3,9.72,9.72,0,0,1-1.5,5.37,8.68,8.68,0,0,1-4.32,3.39l1.23,2.37L387.82,76q.36.72.75,1.38l.81,1.38q.78,1.26,1.68,2.58t2,2.82l1.68,2.25q.78,1.05,1.56,2l.51.63.57.69L399,91.69q.9,1,2,2.16l-1.68,1q-.24-.24-3.06-2.58a47.3,47.3,0,0,1-6.12-6.36l-.39-.51-.45-.57q-1.26-1.62-2.31-2.94t-2-2.58c-.21-.24-.39-.48-.57-.72s-.35-.48-.51-.72q-.84-1.08-1.65-2.25T380.56,73Zm.36-2.16H381a6.61,6.61,0,0,0,3.72-1.2,6.14,6.14,0,0,0,1.8-2.22,5.49,5.49,0,0,0,.54-1.65,9.29,9.29,0,0,0,.12-1.29v-.24a9.5,9.5,0,0,0-2.1-5.43,6.36,6.36,0,0,0-5.28-2.43h-.93a4.47,4.47,0,0,0-.75.06h-.66q-.54,0-.93,0l-.45,0V71.05a3.06,3.06,0,0,0,.69.15l.63,0h.45a1.23,1.23,0,0,0,.39-.06l.51,0a3.86,3.86,0,0,0,.51-.09l.81-.12a5.75,5.75,0,0,1,.87-.06Z"/><path class="a" d="M422.38,74.05v.3c-.05.52-.09,1-.13,1.5s-.08.94-.12,1.38c-.11,1.6-.23,3.08-.32,4.44s-.15,2.5-.15,3.42a6.05,6.05,0,0,0,.21,1.89q.19.63.69.45a1.35,1.35,0,0,1,.44-.15l.46-.09a1.74,1.74,0,0,0,.45-.06l.45-.12,1.14-.48.78,1.5a.92.92,0,0,1-.36.15l-.36,0-1,.24-1,.24-1.08.36-1.21.42-.8.36a5,5,0,0,0-.75.42q-.62.3-1.11.57a4.3,4.3,0,0,1-1,.39.21.21,0,0,1-.26-.06.73.73,0,0,1-.09-.42,9.5,9.5,0,0,1,.18-1.56c.12-.72.25-1.62.42-2.7.08-.44.15-.91.2-1.41s.12-1,.16-1.59.06-1.16.09-1.68,0-1,0-1.5a3.69,3.69,0,0,0,0-.81c0-.26,0-.55,0-.87V76.87l-5.11,8.34a15.33,15.33,0,0,1-2.67,3.3,9.21,9.21,0,0,1-3.2,2,5.57,5.57,0,0,1-1.09.36,4.83,4.83,0,0,1-1.08.12h-.35a3,3,0,0,1-2.67-1.89,9.22,9.22,0,0,1-.75-3.81v-.78a16.15,16.15,0,0,1,.27-2.34c.13-.8.3-1.6.5-2.4A32.38,32.38,0,0,1,405.67,72a34.71,34.71,0,0,1,4.89-6.48,18.73,18.73,0,0,1,3.51-3,6.28,6.28,0,0,1,3-1.17,6.05,6.05,0,0,1,.63,0l.56.09.52.12a6.48,6.48,0,0,1,.63.18l4.19-.48c0,.32-.08.61-.11.87s-.09.51-.12.75c-.28,2.24-.51,4.38-.66,6.42s-.28,3.66-.36,4.86ZM417.7,63.67h-.12l-.27,0a1.69,1.69,0,0,0-.33,0,3.61,3.61,0,0,0-2.25.87A14.88,14.88,0,0,0,412.06,67a29.53,29.53,0,0,0-3.73,5.61,25.92,25.92,0,0,0-2.45,6.87c-.09.44-.15.87-.21,1.29s-.12.85-.15,1.29v1.14a5,5,0,0,0,.54,2.31,2,2,0,0,0,2,1l.27,0,.26,0c1.41-.28,2.77-1.39,4.12-3.33a44.36,44.36,0,0,0,3.57-6.27c.43-1,.85-2.06,1.22-3.06s.71-1.92,1-2.76c0-.12.08-.26.12-.42s.08-.32.12-.48q.11-.6.24-1.29c.07-.46.14-1,.18-1.47v-.3a6.23,6.23,0,0,0-.33-2,2.38,2.38,0,0,0-1.17-1.35Z"/><path class="a" d="M427.29,66.07V63.79a4.17,4.17,0,0,0,1,0l.92-.12a4.36,4.36,0,0,0,.87-.09l1-.21c.55-.12,1.08-.24,1.55-.36a13.14,13.14,0,0,0,1.38-.42,10.06,10.06,0,0,0,1.08-.42c.37-.16.74-.34,1.15-.54L434.74,80,436,77.83q1.13-2,2.63-4.32c.16-.24.33-.49.49-.75s.31-.51.47-.75l.73-1.08q.35-.54.72-1,.7-1,1.38-1.92t1.32-1.74a1.86,1.86,0,0,1,.3-.45q.18-.21.36-.45c.48-.6,1-1.2,1.47-1.8l1.64-2,3.73-.06-1.15,18.54c0-.08.41-.78,1.12-2.1s1.5-2.76,2.42-4.32L454,73c.14-.24.26-.48.39-.72s.46-.73.69-1.11a9,9,0,0,1,.68-1c.49-.68.92-1.31,1.33-1.89s.8-1.13,1.2-1.65c.19-.24.39-.47.56-.69s.35-.45.52-.69c.48-.56,1-1.13,1.43-1.71s1-1.19,1.63-1.83l4.67-.06c-.23,1.4-.44,2.67-.59,3.81s-.3,2.25-.42,3.33-.3,2.26-.4,3.42-.21,2.44-.32,3.84c-.12,1.68-.24,3.23-.33,4.65s-.15,2.83-.15,4.23v1.2c0,.4,0,.82.05,1.26l.07.42L467.5,87l.24,2.16L460,91.33l2.28-26.4c-.09.12-.75.89-2,2.31a49.7,49.7,0,0,0-4.08,5.55c-.35.6-.74,1.23-1.13,1.89s-.79,1.33-1.14,2c-.61,1.16-1.14,2.23-1.6,3.21s-.89,1.95-1.29,2.91-.91,2.19-1.29,3.33-.75,2.39-1.1,3.75a2.92,2.92,0,0,0-.09.42,1.5,1.5,0,0,1-.1.3h-3.3l1.62-25.14c-.75.84-1.45,1.65-2.07,2.43s-1.21,1.53-1.76,2.25-.93,1.35-1.35,2-.86,1.35-1.29,2.07q-.42.72-.87,1.44c-.3.48-.6,1-.87,1.5q-.85,1.5-1.5,2.85a23.25,23.25,0,0,0-1.14,2.67c-.4,1-.75,2-1.06,3.06s-.59,2.18-.87,3.42c0,.24-.09.48-.14.72s-.12.46-.16.66H430l1.44-25.32Z"/><path class="a" d="M475.05,65.47v.06l-5.22.9V64.27a.64.64,0,0,0,.33,0,1.69,1.69,0,0,1,.33,0l1-.12,1-.12,1.17-.24a11.87,11.87,0,0,0,1.29-.36l.87-.27.93-.33a.42.42,0,0,0,.18,0l.18-.09,2-.69q.93-.33,1-.39L478,90.55l-4.56,1q.6-3.84.93-7.29t.45-6.15q.18-2.7.24-4.41t.06-3.21V67.78q0-1-.06-2.25Zm2.76-15.66,3.36,2.88-9.6,4.2-.84-1Z"/><path class="a" d="M503.73,62v5a1,1,0,0,0-.3-.06l-.27,0a1.69,1.69,0,0,0-.33,0,5.06,5.06,0,0,0-2.55,1.2q-1.65,1.2-3.81,5.82l-.84,1.92q-.42,1-.78,1.92a71.45,71.45,0,0,0-2.64,8.7q-.9,4-.9,4.14h-3.18l1.44-25.08-6,1.08V64.39l1.38-.12a30.5,30.5,0,0,0,3.78-.72q.36-.06.72-.15t.72-.21l.69-.24a4.34,4.34,0,0,1,.63-.18q1-.36,1.77-.69a6.85,6.85,0,0,1,.81-.33l-.78,15,1.5-3.6a1.89,1.89,0,0,0,.21-.45,3.89,3.89,0,0,1,.21-.51q1.08-2.7,2.19-5.13a13.36,13.36,0,0,1,2.19-3.57,5.1,5.1,0,0,1,1.74-1.32,3.92,3.92,0,0,1,1.38-.3,2.58,2.58,0,0,1,.42,0l.3,0,.3.12Z"/><path class="a" d="M522,80.23h.12l1.86.24v.12a14.36,14.36,0,0,1-.27,2,10.88,10.88,0,0,1-1.17,3.18,10.68,10.68,0,0,1-3.15,3.66A9.45,9.45,0,0,1,513.52,91,7.25,7.25,0,0,1,507,87.82a14,14,0,0,1-2.1-7.83v-.84q.06-.84.12-1.71t.12-1.71A28.23,28.23,0,0,1,508,65.89a8.14,8.14,0,0,1,7.5-4.68h.3q3.72-.06,5.13,2.31a10.3,10.3,0,0,1,1.41,5.37v.63a3.21,3.21,0,0,1-.06.63A14.79,14.79,0,0,1,522,72q-.18.93-.42,1.83l-1.65.54c-.51.16-1,.3-1.47.42s-.8.23-1.2.33-.82.19-1.26.27l-.45.09a4,4,0,0,0-.45.09q-.84.18-1.53.3l-1.35.24q-.72.12-1.47.21l-1.65.21a1.32,1.32,0,0,0-.09.54q0,.48,0,1.32t.09,1.8a16.28,16.28,0,0,0,.33,2.1,10.07,10.07,0,0,0,1.8,3.87,5.15,5.15,0,0,0,4,2h.3a5.72,5.72,0,0,0,4.59-2.22A7.63,7.63,0,0,0,522,81v-.72Zm-12.6-5.58v.06l5.34-.9a3.93,3.93,0,0,0,3-1.92,6.76,6.76,0,0,0,1-3.6v-.45a2.54,2.54,0,0,0-.06-.45,1.69,1.69,0,0,0,0-.33,1.39,1.39,0,0,1,0-.27.66.66,0,0,0,0-.21.66.66,0,0,1,0-.21,8.17,8.17,0,0,0-.6-2.43,2.1,2.1,0,0,0-2.16-1.11h-.3a4.06,4.06,0,0,0-3.18,2,15.81,15.81,0,0,0-2,4,20.17,20.17,0,0,0-.78,3.21,16.22,16.22,0,0,0-.24,2.25v.36c0,.08,0,.12.06.12Z"/><path class="a" d="M530.86,68.47h-2l.9-6.78c1.11.12,2.15.21,3.09.27s1.86.11,2.79.15,1.78.07,2.73.09,2,0,3.09,0H545q1.62,0,3.18-.06l3.12-.15c1-.06,2.19-.15,3.48-.27l.48,1.44L533.2,86.83a6.39,6.39,0,0,0,1.23.21q1.17.15,3.09.33l4.05.27q2.25.15,4.59.15h2.55q1.17,0,2.25-.06l2.37-.12c.81,0,1.71-.1,2.67-.18v2.64c-1.17.16-2.22.27-3.18.33l-2.82.15-2.88.12c-1,0-2,.06-3.18.06l-2.85,0c-1,0-2,0-3-.09l-2.88-.12-2.7-.12L526.66,90V88.63l22.2-22.86H535.3a.06.06,0,0,1-.06.06h-.69a4.83,4.83,0,0,0-1,.12,5.69,5.69,0,0,0-.84.18,1.49,1.49,0,0,0-.66.36,3.92,3.92,0,0,0-.36.42,3.15,3.15,0,0,0-.3.48,4.16,4.16,0,0,0-.36.75,1.46,1.46,0,0,0-.12.39Z"/></svg>