<svg xmlns="http://www.w3.org/2000/svg" width="300" height="600" viewBox="0 0 300 600"><defs><style>.a,.b{fill:none;stroke:#2b2f71;stroke-width:2px;}.a{stroke-miterlimit:10;}.b{stroke-linecap:round;stroke-linejoin:round;}</style></defs><title>lines</title><path class="a" d="M172.56,119.83h44c20.12,0,32.38-12.26,32.38-27.38V57.84"/><path class="a" d="M31.57,182.25v-39c0-20.12,12.26-22.38,27.38-22.38h44.61"/><path class="a" d="M113.26,391.54h-39c-20.12,0-22.38-12.26-22.38-27.38V319.55"/><path class="a" d="M226.55,397.84v69c0,20.12-12.26,22.38-27.38,22.38H154.57"/><polyline class="b" points="244.62 279.78 244.62 250.75 244.62 227.78"/><polyline class="b" points="102.36 298.83 102.36 307.85 102.36 320.82"/><polyline class="b" points="98.08 303.14 98.08 308.59 98.08 316.43"/><polyline class="b" points="154.36 477.83 154.36 486.85 154.36 499.82"/><polyline class="b" points="150.08 482.14 150.08 487.59 150.08 495.43"/><polyline class="b" points="125.96 309.24 116.94 309.24 103.97 309.24"/><polyline class="b" points="172.56 130.82 172.56 121.8 172.56 108.83"/><polyline class="b" points="168.28 126.51 168.28 121.06 168.28 113.22"/><polyline class="b" points="190.56 217.82 184.53 217.82 171.56 217.82"/><polyline class="b" points="191.08 228.82 191.08 219.8 191.08 206.83"/><polyline class="b" points="195.36 224.51 195.36 219.06 195.36 211.22"/></svg>