<?xml version="1.0" encoding="utf-8"?>
<!-- Generator: Adobe Illustrator 22.0.1, SVG Export Plug-In . SVG Version: 6.00 Build 0)  -->
<svg version="1.1" id="Layer_1" xmlns="http://www.w3.org/2000/svg" xmlns:xlink="http://www.w3.org/1999/xlink" x="0px" y="0px"
	 viewBox="0 0 149 24" style="enable-background:new 0 0 149 24;" xml:space="preserve">
<style type="text/css">
	.st0{fill:#342D87;fill-opacity:0;}
	.st1{fill:#FFFFFF;}
	.st2{fill:#63AFE1;}
</style>
<path class="st0" d="M145.5,24H3.5C1.6,24,0,22.5,0,20.6V3.4C0,1.5,1.6,0,3.5,0h142c1.9,0,3.4,1.5,3.4,3.4v17.2
	C148.9,22.5,147.4,24,145.5,24z"/>
<g>
	<path class="st1" d="M12.5,12.8h1.7v3.3c-0.4,0.3-1,0.6-1.5,0.8c-0.6,0.2-1.2,0.3-1.7,0.3c-0.8,0-1.6-0.2-2.3-0.5s-1.2-0.9-1.6-1.5
		c-0.4-0.6-0.6-1.4-0.6-2.2s0.2-1.5,0.6-2.2C7.4,10.2,8,9.7,8.7,9.3s1.4-0.5,2.3-0.5c0.7,0,1.4,0.1,1.9,0.4c0.6,0.2,1.1,0.6,1.5,1
		l-1.2,1.1c-0.6-0.6-1.3-0.9-2.1-0.9c-0.5,0-1,0.1-1.4,0.3c-0.4,0.2-0.7,0.5-0.9,0.9C8.5,12,8.4,12.5,8.4,13c0,0.5,0.1,1,0.3,1.3
		c0.2,0.4,0.5,0.7,0.9,0.9s0.8,0.3,1.4,0.3c0.5,0,1-0.1,1.5-0.3C12.5,15.2,12.5,12.8,12.5,12.8z"/>
	<path class="st1" d="M21.7,15.5V17h-6.3V8.9h6.1v1.5h-4.2v1.8h3.8v1.5h-3.8v1.9C17.3,15.5,21.7,15.5,21.7,15.5z"/>
	<path class="st1" d="M24.4,10.4h-2.6V8.9h7.1v1.5h-2.6V17h-1.9V10.4z"/>
	<path class="st1" d="M33.9,10.4h-2.6V8.9h7.1v1.5h-2.6V17h-1.9L33.9,10.4L33.9,10.4z"/>
	<path class="st1" d="M40.4,16.6c-0.7-0.4-1.2-0.9-1.6-1.5c-0.4-0.6-0.6-1.3-0.6-2.2c0-0.8,0.2-1.5,0.6-2.2c0.4-0.6,0.9-1.1,1.6-1.5
		c0.7-0.4,1.4-0.5,2.3-0.5c0.8,0,1.6,0.2,2.3,0.5c0.7,0.4,1.2,0.9,1.6,1.5c0.4,0.6,0.6,1.3,0.6,2.2c0,0.8-0.2,1.5-0.6,2.2
		c-0.4,0.6-0.9,1.1-1.6,1.5c-0.7,0.4-1.4,0.5-2.3,0.5C41.9,17.2,41.1,17,40.4,16.6z M44,15.2c0.4-0.2,0.7-0.5,0.9-0.9
		c0.2-0.4,0.3-0.8,0.3-1.3s-0.1-1-0.3-1.3c-0.2-0.4-0.5-0.7-0.9-0.9c-0.4-0.2-0.8-0.3-1.3-0.3c-0.5,0-0.9,0.1-1.3,0.3
		c-0.4,0.2-0.7,0.5-0.9,0.9c-0.2,0.4-0.3,0.8-0.3,1.3s0.1,1,0.3,1.3c0.2,0.4,0.5,0.7,0.9,0.9c0.4,0.2,0.8,0.3,1.3,0.3
		C43.2,15.6,43.6,15.4,44,15.2z"/>
	<path class="st1" d="M53.8,13.8l-1.1,1.1v2h-1.9V8.9h1.9v3.8l3.6-3.8h2.1L55,12.5l3.6,4.5h-2.2L53.8,13.8z"/>
	<path class="st1" d="M66.4,8.9V17h-1.5l-4-4.9V17H59V8.9h1.5l4,4.9V8.9H66.4z"/>
	<path class="st1" d="M69.5,16.6c-0.7-0.4-1.2-0.9-1.6-1.5c-0.4-0.6-0.6-1.3-0.6-2.2c0-0.8,0.2-1.5,0.6-2.2c0.4-0.6,0.9-1.1,1.6-1.5
		c0.7-0.4,1.4-0.5,2.3-0.5c0.8,0,1.6,0.2,2.3,0.5c0.7,0.4,1.2,0.9,1.6,1.5c0.4,0.6,0.6,1.3,0.6,2.2c0,0.8-0.2,1.5-0.6,2.2
		c-0.4,0.6-0.9,1.1-1.6,1.5c-0.7,0.4-1.4,0.5-2.3,0.5C70.9,17.2,70.2,17,69.5,16.6z M73.1,15.2c0.4-0.2,0.7-0.5,0.9-0.9
		c0.2-0.4,0.3-0.8,0.3-1.3s-0.1-1-0.3-1.3c-0.2-0.4-0.5-0.7-0.9-0.9c-0.4-0.2-0.8-0.3-1.3-0.3c-0.5,0-0.9,0.1-1.3,0.3
		c-0.4,0.2-0.7,0.5-0.9,0.9c-0.2,0.4-0.3,0.8-0.3,1.3s0.1,1,0.3,1.3c0.2,0.4,0.5,0.7,0.9,0.9c0.4,0.2,0.8,0.3,1.3,0.3
		C72.2,15.6,72.7,15.4,73.1,15.2z"/>
	<path class="st1" d="M89.1,8.9L86.5,17h-2l-1.8-5.5L80.8,17h-2l-2.7-8.1h1.9l1.8,5.7l1.9-5.7h1.7l1.8,5.7l1.9-5.7
		C87.3,8.9,89.1,8.9,89.1,8.9z"/>
	<path class="st1" d="M97.8,17l-2-2.8L93.9,17h-2.2l3-4.1l-2.9-4H94l1.9,2.6l1.8-2.6h2l-2.8,3.9l3,4.2H97.8z"/>
	<path class="st1" d="M100.2,8.9h1.9V17h-1.9L100.2,8.9L100.2,8.9z"/>
	<path class="st1" d="M103.5,8.9h1.9V17h-1.9V8.9z"/>
	<path class="st1" d="M106.8,8.9h3.7c0.9,0,1.6,0.2,2.3,0.5c0.7,0.3,1.2,0.8,1.6,1.4c0.4,0.6,0.6,1.3,0.6,2.1s-0.2,1.5-0.6,2.1
		c-0.4,0.6-0.9,1.1-1.6,1.4c-0.7,0.3-1.5,0.5-2.3,0.5h-3.7L106.8,8.9L106.8,8.9z M110.4,15.5c0.8,0,1.5-0.2,1.9-0.7
		c0.5-0.4,0.7-1.1,0.7-1.8c0-0.8-0.2-1.4-0.7-1.8s-1.1-0.7-1.9-0.7h-1.7v5H110.4z"/>
	<path class="st1" d="M121.1,17l-1.6-2.3h-0.1h-1.6V17h-1.9V8.9h3.5c0.7,0,1.3,0.1,1.9,0.4c0.5,0.2,0.9,0.6,1.2,1
		c0.3,0.4,0.4,1,0.4,1.6s-0.1,1.1-0.4,1.6c-0.3,0.4-0.7,0.8-1.2,1l1.8,2.6H121.1z M120.6,10.8c-0.3-0.3-0.7-0.4-1.3-0.4h-1.5v2.8
		h1.5c0.6,0,1-0.1,1.3-0.4c0.3-0.3,0.4-0.6,0.4-1C121,11.4,120.9,11,120.6,10.8z"/>
	<path class="st1" d="M129.3,15.3h-3.8l-0.7,1.7h-1.9l3.6-8.1h1.8l3.6,8.1h-2L129.3,15.3z M128.7,13.9l-1.3-3.1l-1.3,3.1H128.7z"/>
</g>
<circle class="st2" cx="101" cy="6.8" r="1.4"/>
<circle class="st2" cx="104.6" cy="6.8" r="1.4"/>
</svg>
