<?xml version="1.0" encoding="utf-8"?>
<!-- Generator: Adobe Illustrator 22.0.1, SVG Export Plug-In . SVG Version: 6.00 Build 0)  -->
<svg version="1.1" id="Layer_1" xmlns="http://www.w3.org/2000/svg" xmlns:xlink="http://www.w3.org/1999/xlink" x="0px" y="0px"
	 viewBox="0 0 253 41" style="enable-background:new 0 0 253 41;" xml:space="preserve">
<style type="text/css">
	.st0{fill:#342D87;fill-opacity:0;}
	.st1{fill:#FFFFFF;}
	.st2{fill:#63AFE1;}
</style>
<path class="st0" d="M247.1,41.1H5.9c-3.3,0-5.9-2.6-5.9-5.9V5.9C0,2.6,2.6,0,5.9,0h241.2c3.3,0,5.9,2.6,5.9,5.9v29.3
	C253,38.5,250.3,41.1,247.1,41.1z"/>
<g>
	<path class="st1" d="M21.3,22h2.9v5.6c-0.8,0.6-1.6,1-2.6,1.3s-2,0.5-3,0.5c-1.4,0-2.7-0.3-3.9-0.9c-1.2-0.6-2.1-1.5-2.7-2.5
		c-0.7-1.1-1-2.3-1-3.7s0.3-2.6,1-3.7s1.6-1.9,2.7-2.5c1.2-0.6,2.5-0.9,3.9-0.9c1.2,0,2.3,0.2,3.3,0.6s1.8,1,2.5,1.8l-2.1,1.9
		c-1-1-2.2-1.6-3.6-1.6c-0.9,0-1.7,0.2-2.4,0.6c-0.7,0.4-1.2,0.9-1.6,1.6c-0.4,0.7-0.6,1.4-0.6,2.3c0,0.9,0.2,1.6,0.6,2.3
		c0.4,0.7,0.9,1.2,1.6,1.6c0.7,0.4,1.4,0.6,2.3,0.6c0.9,0,1.7-0.2,2.5-0.6C21.3,26.1,21.3,22,21.3,22z"/>
	<path class="st1" d="M37.1,26.6v2.6H26.4V15.3h10.5v2.6h-7.3v3H36v2.5h-6.4v3.2C29.6,26.6,37.1,26.6,37.1,26.6z"/>
	<path class="st1" d="M41.7,17.9h-4.4v-2.6h12.1v2.6h-4.4v11.3h-3.2V17.9z"/>
	<path class="st1" d="M57.9,17.9h-4.4v-2.6h12.1v2.6h-4.4v11.3h-3.2L57.9,17.9L57.9,17.9z"/>
	<path class="st1" d="M69.1,28.5c-1.2-0.6-2.1-1.5-2.7-2.6c-0.6-1.1-1-2.3-1-3.7c0-1.3,0.3-2.6,1-3.7c0.6-1.1,1.6-1.9,2.7-2.6
		c1.2-0.6,2.5-0.9,3.9-0.9c1.4,0,2.7,0.3,3.9,0.9c1.1,0.6,2.1,1.5,2.7,2.6c0.7,1.1,1,2.3,1,3.7c0,1.3-0.3,2.6-1,3.7
		c-0.7,1.1-1.6,1.9-2.7,2.6c-1.1,0.6-2.5,0.9-3.9,0.9C71.5,29.4,70.2,29.1,69.1,28.5z M75.2,26.1c0.7-0.4,1.2-0.9,1.6-1.6
		s0.6-1.4,0.6-2.3c0-0.9-0.2-1.6-0.6-2.3c-0.4-0.7-0.9-1.2-1.6-1.6c-0.7-0.4-1.4-0.6-2.2-0.6c-0.8,0-1.6,0.2-2.2,0.6
		c-0.7,0.4-1.2,0.9-1.6,1.6c-0.4,0.7-0.6,1.4-0.6,2.3c0,0.9,0.2,1.6,0.6,2.3c0.4,0.7,0.9,1.2,1.6,1.6c0.7,0.4,1.4,0.6,2.2,0.6
		C73.8,26.7,74.5,26.5,75.2,26.1z"/>
	<path class="st1" d="M92,23.7l-1.9,1.9v3.5h-3.2V15.3h3.2v6.5l6.1-6.5h3.6l-5.7,6.2l6.1,7.7h-3.7L92,23.7z"/>
	<path class="st1" d="M113.5,15.3v13.9h-2.6l-6.9-8.4v8.4h-3.2V15.3h2.6l6.9,8.4v-8.4H113.5z"/>
	<path class="st1" d="M118.8,28.5c-1.2-0.6-2.1-1.5-2.7-2.6c-0.6-1.1-1-2.3-1-3.7c0-1.3,0.3-2.6,1-3.7c0.6-1.1,1.6-1.9,2.7-2.6
		c1.2-0.6,2.5-0.9,3.9-0.9c1.4,0,2.7,0.3,3.9,0.9c1.1,0.6,2.1,1.5,2.7,2.6c0.7,1.1,1,2.3,1,3.7c0,1.3-0.3,2.6-1,3.7
		c-0.7,1.1-1.6,1.9-2.7,2.6c-1.1,0.6-2.5,0.9-3.9,0.9C121.2,29.4,119.9,29.1,118.8,28.5z M124.9,26.1c0.7-0.4,1.2-0.9,1.6-1.6
		c0.4-0.7,0.6-1.4,0.6-2.3c0-0.9-0.2-1.6-0.6-2.3c-0.4-0.7-0.9-1.2-1.6-1.6c-0.7-0.4-1.4-0.6-2.2-0.6c-0.8,0-1.6,0.2-2.2,0.6
		c-0.7,0.4-1.2,0.9-1.6,1.6c-0.4,0.7-0.6,1.4-0.6,2.3c0,0.9,0.2,1.6,0.6,2.3s0.9,1.2,1.6,1.6c0.7,0.4,1.4,0.6,2.2,0.6
		C123.5,26.7,124.2,26.5,124.9,26.1z"/>
	<path class="st1" d="M152.3,15.3l-4.5,13.9h-3.4l-3-9.4l-3.2,9.4h-3.4l-4.5-13.9h3.3l3.1,9.8l3.3-9.8h3l3.2,9.8l3.2-9.8
		C149.3,15.3,152.3,15.3,152.3,15.3z"/>
	<path class="st1" d="M167.1,29.2l-3.3-4.8l-3.3,4.8h-3.7l5.1-7.1l-4.9-6.8h3.6l3.2,4.5l3.1-4.5h3.5l-4.8,6.7l5.2,7.2H167.1z"/>
	<path class="st1" d="M171.3,15.3h3.2v13.9h-3.2L171.3,15.3L171.3,15.3z"/>
	<path class="st1" d="M177,15.3h3.2v13.9H177V15.3z"/>
	<path class="st1" d="M182.6,15.3h6.3c1.5,0,2.8,0.3,4,0.9c1.2,0.6,2.1,1.4,2.7,2.4c0.6,1,1,2.3,1,3.6s-0.3,2.6-1,3.6
		c-0.6,1-1.5,1.8-2.7,2.4s-2.5,0.9-4,0.9h-6.3L182.6,15.3L182.6,15.3z M188.8,26.5c1.4,0,2.5-0.4,3.3-1.2c0.8-0.8,1.2-1.8,1.2-3.1
		c0-1.3-0.4-2.4-1.2-3.1c-0.8-0.8-1.9-1.2-3.3-1.2h-2.9v8.6H188.8z"/>
	<path class="st1" d="M207,29.2l-2.7-3.9h-0.2h-2.8v3.9h-3.2V15.3h6c1.2,0,2.3,0.2,3.2,0.6c0.9,0.4,1.6,1,2.1,1.7
		c0.5,0.8,0.7,1.7,0.7,2.7c0,1-0.2,1.9-0.7,2.7c-0.5,0.7-1.2,1.3-2.1,1.7l3.1,4.4H207z M206.2,18.6c-0.5-0.4-1.2-0.6-2.2-0.6h-2.6
		v4.8h2.6c1,0,1.7-0.2,2.2-0.6c0.5-0.4,0.8-1,0.8-1.8C206.9,19.6,206.7,18.9,206.2,18.6z"/>
	<path class="st1" d="M221,26.2h-6.4l-1.2,3h-3.3l6.2-13.9h3.2l6.2,13.9h-3.4L221,26.2z M220,23.8l-2.2-5.3l-2.2,5.3H220z"/>
</g>
<circle class="st2" cx="172.7" cy="11.7" r="2.5"/>
<circle class="st2" cx="178.9" cy="11.7" r="2.5"/>
</svg>
